<svg width="24" height="24" viewBox="0 0 24 24" fill="none" xmlns="http://www.w3.org/2000/svg">
<path d="M18.4086 10.0276C18.1486 6.65964 15.3736 4 12 4C9.11429 4 6.63714 5.90836 5.83786 8.69164C3.55786 9.49745 2 11.6967 2 14.1818C2 17.3898 4.56357 20 7.71429 20H17C19.7571 20 22 17.7164 22 14.9091C22 12.6189 20.5214 10.6531 18.4086 10.0276ZM15.3621 13.9687L12.505 16.8778C12.3657 17.0196 12.1829 17.0909 12 17.0909C11.8171 17.0909 11.6343 17.0196 11.495 16.8778L8.63786 13.9687C8.43357 13.7607 8.37214 13.448 8.48286 13.176C8.59357 12.9047 8.85429 12.7273 9.14286 12.7273H10.5714V9.81818C10.5714 9.01527 11.2114 8.36364 12 8.36364C12.7886 8.36364 13.4286 9.01527 13.4286 9.81818V12.7273H14.8571C15.1457 12.7273 15.4064 12.9047 15.5171 13.176C15.6279 13.448 15.5664 13.7607 15.3621 13.9687Z" fill="#933393"/>
</svg>
